<svg id="bc0ac66e-4e9a-4afc-850b-12f39366699e" xmlns="http://www.w3.org/2000/svg" viewBox="0 0 855 663.14"><title>undraw_snow_fun_re_plbr</title><path d="M613.19,662.37H541.28V606.8H382.17a4.5,4.5,0,0,1-3.9-6.75l53.52-92.69.9.43-.16.42c4.77,1.73,45.08,15.94,100.17,23.21a488.54,488.54,0,0,0,63.5,4.26c53,0,100.66-9.24,141.79-27.48l.41-.18,53.13,92a4.5,4.5,0,0,1-3.9,6.75H613.19Z" transform="translate(0 0)" fill="#f2f2f2"/><path d="M591.12,226.76a301.64,301.64,0,0,1-77.63-10.59l-.61-.18L523,200.42H491.22a4.51,4.51,0,0,1-4.5-4.51,4.44,4.44,0,0,1,.61-2.24l44.23-76.62.87.49-.2.38A123.41,123.41,0,0,0,585,129.85a106.08,106.08,0,0,0,48.58-11.57l-.42-2.81c-50.34,25.8-98.82.52-100.86-.57l-.46-.25,53.11-90,97.58,169a4.5,4.5,0,0,1-1.65,6.14,4.44,4.44,0,0,1-2.25.61H646.77L656.9,216l-.55.21C635.21,224.11,612.29,226.76,591.12,226.76Z" transform="translate(0 0)" fill="#f2f2f2"/><path d="M596.18,532.76a485.77,485.77,0,0,1-63.32-4.24c-56.95-7.51-98.58-20.64-100.32-21.28L432,507l27-46.83H433.81a4.49,4.49,0,0,1-4.5-4.5,4.57,4.57,0,0,1,.6-2.25L499,333.73H453.86a4.5,4.5,0,0,1-4.5-4.5A4.43,4.43,0,0,1,450,327l9.56-16.56.88.48-.2.39c3.58,1.73,28.35,13.14,68.5,19a340.74,340.74,0,0,0,49.23,3.51c43,0,86.75-7.59,130.1-22.57l-.3-.87c-76,26.25-139.15,22.85-178.81,17-42.49-6.22-67.66-18.63-68.71-19.15l-.47-.24,53-89.9.74,1a300.63,300.63,0,0,0,77.56,10.6c24.54,0,46.5-3.56,65.29-10.56l-.2-.52.9-.43L719.84,327a4.5,4.5,0,0,1-3.89,6.75H670.77l41.94,70.64-.57.2c-67.88,23.86-132.54,22.52-174.83,17.19-43.23-5.45-72.7-14.06-76.72-15.56l-.33.85c4,1.5,33.49,12.14,76.88,17.61a415.56,415.56,0,0,0,51.58,3.24c43.61,0,85.35-6.93,124.06-20.58l.4-.14,26.71,46.27a4.5,4.5,0,0,1-1.64,6.15,4.57,4.57,0,0,1-2.25.6H710.79l27.14,45-.5.23C690.3,526.3,640.19,532.76,596.18,532.76Z" transform="translate(0 0)" fill="#f2f2f2"/><circle cx="690.76" cy="352.24" r="17.59" fill="#e6e6e6"/><polygon points="679.14 351.68 674.58 344.62 675.5 344.03 679.42 350.1 687.47 344.12 694.66 351.21 701.73 345.06 708.21 352.51 707.38 353.24 701.62 346.61 694.61 352.71 687.37 345.56 679.14 351.68" fill="#ccc"/><polygon points="705.73 361.89 699.92 355.21 692.91 361.31 685.66 354.17 677.45 360.28 672.93 353.28 673.74 352.76 677.7 358.9 685.75 352.91 692.95 360 700.01 353.86 706.45 361.26 705.73 361.89" fill="#ccc"/><rect x="685.26" y="328.07" width="13.19" height="1.1" transform="translate(315.95 995.96) rotate(-86.02)" fill="#ccc"/><circle cx="456.01" cy="359.9" r="17.59" fill="#e6e6e6"/><polygon points="444.39 359.35 439.83 352.29 440.76 351.69 444.68 357.76 452.72 351.79 459.91 358.87 466.98 352.73 473.47 360.18 472.64 360.9 466.88 354.28 459.87 360.37 452.62 353.23 444.39 359.35" fill="#ccc"/><polygon points="470.98 369.55 465.18 362.88 458.16 368.97 450.92 361.83 442.7 367.94 438.19 360.95 438.99 360.43 442.95 366.56 451.01 360.58 458.2 367.67 465.27 361.52 471.71 368.92 470.98 369.55" fill="#ccc"/><rect x="450.51" y="335.73" width="13.19" height="1.1" transform="translate(89.87 768.92) rotate(-86.02)" fill="#ccc"/><circle cx="567.16" cy="169.23" r="17.59" fill="#e6e6e6"/><polygon points="555.53 168.67 550.98 161.62 551.9 161.02 555.82 167.09 563.87 161.11 571.06 168.2 578.13 162.05 584.61 169.51 583.78 170.23 578.02 163.6 571.01 169.7 563.76 162.56 555.53 168.67" fill="#ccc"/><polygon points="582.13 178.88 576.32 172.2 569.31 178.3 562.06 171.16 553.85 177.27 549.33 170.28 550.14 169.76 554.1 175.89 562.15 169.9 569.35 177 576.41 170.85 582.85 178.25 582.13 178.88" fill="#ccc"/><rect x="561.65" y="145.06" width="13.19" height="1.1" transform="translate(383.51 702.37) rotate(-86.02)" fill="#ccc"/><circle cx="674.47" cy="483.51" r="17.59" fill="#e6e6e6"/><polygon points="662.85 482.95 658.29 475.89 659.22 475.29 663.13 481.36 671.18 475.39 678.37 482.48 685.44 476.33 691.92 483.78 691.1 484.5 685.33 477.88 678.33 483.97 671.08 476.83 662.85 482.95" fill="#ccc"/><polygon points="689.44 493.15 683.63 486.48 676.62 492.57 669.38 485.44 661.16 491.54 656.64 484.55 657.45 484.03 661.41 490.16 669.46 484.18 676.66 491.27 683.73 485.12 690.16 492.52 689.44 493.15" fill="#ccc"/><rect x="668.97" y="459.33" width="13.19" height="1.1" transform="translate(169.85 1101.86) rotate(-86.02)" fill="#ccc"/><circle cx="476.13" cy="548.66" r="17.59" fill="#e6e6e6"/><polygon points="464.51 548.1 459.96 541.04 460.88 540.45 464.8 546.52 472.84 540.54 480.03 547.63 487.11 541.48 493.59 548.93 492.76 549.66 487 543.03 479.99 549.13 472.74 541.98 464.51 548.1" fill="#ccc"/><polygon points="491.1 558.31 485.3 551.63 478.28 557.73 471.04 550.59 462.82 556.7 458.31 549.7 459.11 549.18 463.07 555.32 471.13 549.33 478.32 556.42 485.39 550.28 491.83 557.68 491.1 558.31" fill="#ccc"/><rect x="470.63" y="524.49" width="13.19" height="1.1" transform="translate(-79.71 964.63) rotate(-86.02)" fill="#ccc"/><circle cx="616.02" cy="271.75" r="17.59" fill="#e6e6e6"/><polygon points="604.4 271.2 599.85 264.14 600.77 263.54 604.69 269.61 612.73 263.63 619.92 270.73 626.99 264.57 633.48 272.03 632.65 272.75 626.89 266.13 619.88 272.22 612.63 265.08 604.4 271.2" fill="#ccc"/><polygon points="630.99 281.4 625.18 274.73 618.17 280.82 610.93 273.69 602.71 279.79 598.2 272.8 599 272.28 602.96 278.41 611.02 272.43 618.21 279.52 625.28 273.37 631.72 280.77 630.99 281.4" fill="#ccc"/><rect x="610.52" y="247.58" width="13.19" height="1.1" transform="translate(326.7 846.52) rotate(-86.02)" fill="#ccc"/><circle cx="566.2" cy="445.18" r="17.59" fill="#e6e6e6"/><polygon points="554.58 444.62 550.02 437.56 550.95 436.97 554.86 443.04 562.91 437.06 570.1 444.15 577.17 438 583.65 445.45 582.83 446.18 577.06 439.55 570.05 445.65 562.81 438.5 554.58 444.62" fill="#ccc"/><polygon points="581.17 454.83 575.36 448.15 568.35 454.25 561.11 447.11 552.89 453.22 548.37 446.22 549.18 445.7 553.14 451.84 561.19 445.85 568.39 452.94 575.46 446.8 581.89 454.2 581.17 454.83" fill="#ccc"/><rect x="560.7" y="421.01" width="13.19" height="1.1" transform="translate(107.33 958.19) rotate(-86.02)" fill="#ccc"/><path d="M595,40.11a2.47,2.47,0,0,1-1.5-.51l-8.9-6.67a1.5,1.5,0,0,0-1.76,0l-9.1,6.4a2.5,2.5,0,0,1-3.8-2.85l3.6-10.53a1.49,1.49,0,0,0-.52-1.68l-8.9-6.68a2.5,2.5,0,0,1,1.54-4.5l11.12.17a1.49,1.49,0,0,0,1.44-1l3.61-10.53A2.42,2.42,0,0,1,584.25,0a2.46,2.46,0,0,1,2.35,1.77l3.27,10.63a1.48,1.48,0,0,0,1.41,1l11.13.18a2.5,2.5,0,0,1,1.4,4.54l-9.1,6.4a1.48,1.48,0,0,0-.57,1.67l3.27,10.63A2.51,2.51,0,0,1,595,40.11Z" transform="translate(0 0)" fill="#ccc"/><path d="M295.25,627.14h-16.5a9,9,0,0,1-9-9.6,9.17,9.17,0,0,1,9.27-8.4h3.71v-20h22v28.5A9.51,9.51,0,0,1,295.25,627.14Z" transform="translate(0 0)" fill="#ccc"/><path d="M277.17,539.24l-19.9-2a11,11,0,0,1,2.19-21.89l19.9,2a11,11,0,0,1,5.87,19.46,12,12,0,0,1-1.58,1.09A11,11,0,0,1,277.17,539.24Z" transform="translate(0 0)" fill="#ccc"/><path d="M227,523.16h0a10.5,10.5,0,0,1,11.5-9.4h0l1.14-.07L237.9,512a2.5,2.5,0,1,1,3.47-3.59h0l5,4.86,7.6-.49a4,4,0,0,1,4.24,3.74,1.21,1.21,0,0,1,0,.19l.3,18a4,4,0,0,1-3.93,4.07,4,4,0,0,1-1-.11l-17.23-4A10.5,10.5,0,0,1,227,523.16Z" transform="translate(0 0)" fill="#3f3d56"/><ellipse cx="306.75" cy="553.64" rx="41.5" ry="50" fill="#e6e6e6"/><ellipse cx="283.25" cy="548.54" rx="3" ry="5.1" fill="#3f3d56"/><ellipse cx="282.25" cy="562.74" rx="3" ry="5.1" fill="#3f3d56"/><circle cx="306.25" cy="482.64" r="32" fill="#e6e6e6"/><path d="M333.25,473.14h-53a6.51,6.51,0,0,1-6.5-6.5v-5c0-16.84,17.05-32.5,35.5-32.5s29.5,15.66,29.5,32.5v6A5.5,5.5,0,0,1,333.25,473.14Z" transform="translate(0 0)" fill="#3f3d56"/><path d="M328.15,531l-1.4,20a11,11,0,0,1-21.95-1.55l1.41-19.95A11,11,0,0,1,325.49,523a12.28,12.28,0,0,1,1.13,1.55A11,11,0,0,1,328.15,531Z" transform="translate(0 0)" fill="#ccc"/><path d="M313.57,581.6h0a10.5,10.5,0,0,1-9.74-11.21h0l-.11-1.14-1.66,1.81a2.5,2.5,0,1,1-3.7-3.36h0l4.72-5.16-.72-7.59a4,4,0,0,1,3.61-4.35l.19,0,18-.83a4,4,0,0,1,4.18,3.81,3.5,3.5,0,0,1-.07,1l-3.46,17.34A10.51,10.51,0,0,1,313.57,581.6Z" transform="translate(0 0)" fill="#3f3d56"/><circle cx="310.25" cy="429.64" r="8" fill="#6c63ff"/><circle cx="298.75" cy="480.14" r="3" fill="#3f3d56"/><circle cx="281.75" cy="480.14" r="3" fill="#3f3d56"/><path d="M331.75,627.14h-16.5a9.52,9.52,0,0,1-9.5-9.5v-28.5h22v20h3.71a9.16,9.16,0,0,1,9.27,8.4,9,9,0,0,1-9,9.6Z" transform="translate(0 0)" fill="#ccc"/><path d="M186.13,548.28l-13.23-15a11,11,0,0,1,16.5-14.56l13.23,15a11,11,0,0,1-16.5,14.56Z" transform="translate(0 0)" fill="#ccc"/><path d="M160.32,502.37h0a10.51,10.51,0,0,1,14.82.93h0l.89.73-.13-2.46a2.5,2.5,0,0,1,5-.26h0l.37,7,5.9,4.81a4,4,0,0,1,.58,5.63l-.13.15-12,13.38a4,4,0,0,1-5.65.3,3.73,3.73,0,0,1-.64-.73l-9.92-14.64A10.5,10.5,0,0,1,160.32,502.37Z" transform="translate(0 0)" fill="#6c63ff"/><ellipse cx="186.25" cy="597.14" rx="12.5" ry="19" transform="translate(-256.45 155.24) rotate(-27.73)" fill="#ccc"/><ellipse cx="220.25" cy="567.14" rx="41.5" ry="50" fill="#e6e6e6"/><ellipse cx="201.25" cy="600.14" rx="12.5" ry="19" transform="translate(-237.44 143.83) rotate(-25.33)" fill="#ccc"/><ellipse cx="183.75" cy="560.04" rx="3" ry="5.1" fill="#3f3d56"/><ellipse cx="186.75" cy="547.04" rx="5.1" ry="3" transform="translate(-390.18 582.72) rotate(-74.69)" fill="#3f3d56"/><ellipse cx="183.75" cy="573.24" rx="3" ry="5.1" fill="#3f3d56"/><circle cx="219.75" cy="496.14" r="32" fill="#e6e6e6"/><path d="M246.75,486.64h-53a6.51,6.51,0,0,1-6.5-6.5v-5c0-16.84,14.05-50.5,32.5-50.5s32.5,33.66,32.5,50.5v6A5.5,5.5,0,0,1,246.75,486.64Z" transform="translate(0 0)" fill="#6c63ff"/><path d="M239,557.77a11.23,11.23,0,0,1-1.92-.17,11,11,0,0,1-4.44-19.83L249,526.26a11,11,0,0,1,12.66,18l-16.36,11.5A10.88,10.88,0,0,1,239,557.77Z" transform="translate(0 0)" fill="#ccc"/><path d="M281.14,517.14h0a10.51,10.51,0,0,0-14.63-2.55h0l-1,.5.69-2.36a2.5,2.5,0,1,0-4.79-1.43h0l-2,6.71-6.86,3.3a4,4,0,0,0-1.87,5.34l.09.17,8.57,15.81a4,4,0,0,0,5.42,1.61,3.91,3.91,0,0,0,.79-.56l13.06-11.92A10.51,10.51,0,0,0,281.14,517.14Z" transform="translate(0 0)" fill="#6c63ff"/><circle cx="217.75" cy="424.14" r="8" fill="#6c63ff"/><circle cx="202.75" cy="493.14" r="3" fill="#3f3d56"/><circle cx="191.75" cy="493.14" r="3" fill="#3f3d56"/><path d="M292.09,492.07H292l-27.6-1.21a1.36,1.36,0,0,1-1.4-1c-.08-.57.37-1.07,1.1-1.22l26.38-5.43a1.9,1.9,0,0,1,1.22.15,1.16,1.16,0,0,1,.66.8l1.21,6.63a1,1,0,0,1-.38.94A1.73,1.73,0,0,1,292.09,492.07Z" transform="translate(0 0)" fill="#ff6584"/><path d="M292.89,495.26c-4.13,0-8-2.64-8-.43s3.88,8.41,8,8.41,7.86-4.35,7.86-6.56S297,495.26,292.89,495.26Z" transform="translate(0 0)" fill="#fff"/><path d="M200.89,509.26c-4.13,0-8-2.64-8-.43s3.88,8.41,8,8.41,7.86-4.35,7.86-6.56S205,509.26,200.89,509.26Z" transform="translate(0 0)" fill="#fff"/><path d="M198.8,505.57h-.07L175,504.43a1.19,1.19,0,0,1-1.21-1,1.1,1.1,0,0,1,1-1.16l22.71-5.12a1.53,1.53,0,0,1,1.05.14,1.09,1.09,0,0,1,.57.75l1,6.27a1,1,0,0,1-.33.88A1.38,1.38,0,0,1,198.8,505.57Z" transform="translate(0 0)" fill="#ff6584"/><path d="M478.75,662.14H81.25a42.55,42.55,0,0,1-42.5-42.5,5,5,0,0,1,10,0,32.54,32.54,0,0,0,32.5,32.5h397.5a5,5,0,0,1,0,10Z" transform="translate(0 0)" fill="#3f3d56"/><path d="M439.25,616.14h-332a7.5,7.5,0,0,0,0,15h32.5v18a9,9,0,0,0,18,0v-18h105v18a9,9,0,0,0,18,0v-18h105v18a9,9,0,0,0,18,0h0v-18h35.5a7.5,7.5,0,0,0,0-15Z" transform="translate(0 0)" fill="#3f3d56"/><path d="M854,663.14H1a1,1,0,0,1,0-2H854a1,1,0,0,1,0,2Z" transform="translate(0 0)" fill="#ccc"/></svg>